HIERARCHY
ROOT Hips
{
  OFFSET 0.0 0.0 0.0
  CHANNELS 6 XPOSITION YPOSITION ZPOSITION ZROTATION XROTATION YROTATION 
  JOINT LeftUpLeg
  {
    OFFSET 0.08945800000000001 -0.0866707 0.0010165200000000001
    CHANNELS 3 ZROTATION XROTATION YROTATION 
    JOINT LeftLeg
    {
      OFFSET 0.0 -0.444227 0.013727000000000001
      CHANNELS 3 ZROTATION XROTATION YROTATION 
      JOINT LeftFoot
      {
        OFFSET -0.0025354900000000005 -0.42092399999999996 -0.014605900000000002
        CHANNELS 3 ZROTATION XROTATION YROTATION 
        End Site
        {
          OFFSET -0.0004 -0.0441509 0.08499100000000001
        }
      }
    }
  }
  JOINT Spine
  {
    OFFSET 0.0 0.118905 0.0
    CHANNELS 3 ZROTATION XROTATION YROTATION 
    JOINT Spine1
    {
      OFFSET 0.0 0.25657399999999997 0.00127663
      CHANNELS 3 ZROTATION XROTATION YROTATION 
      End Site
      {
        OFFSET -0.0029 0.21508359999999999 0.02525291
      }
      JOINT RightArm
      {
        OFFSET -0.162727 -0.05365632 0.0010212299999999997
        CHANNELS 3 ZROTATION XROTATION YROTATION 
        JOINT RightForeArm
        {
          OFFSET -0.26364 0.00099144 -0.0142434
          CHANNELS 3 ZROTATION XROTATION YROTATION 
          End Site
          {
            OFFSET -0.220324 0.0008536199999999999 0.010221599999999999
          }
        }
      }
      JOINT LeftArm
      {
        OFFSET 0.162727 -0.053656319900000006 0.0010212299999999997
        CHANNELS 3 ZROTATION XROTATION YROTATION 
        JOINT LeftForeArm
        {
          OFFSET 0.26259699999999997 0.00099144 -0.0142434
          CHANNELS 3 ZROTATION XROTATION YROTATION 
          End Site
          {
            OFFSET 0.220902 0.0008536199999999999 0.010221599999999999
          }
        }
      }
    }
  }
  JOINT RightUpLeg
  {
    OFFSET -0.08945800000000001 -0.0866707 0.0010165200000000001
    CHANNELS 3 ZROTATION XROTATION YROTATION 
    JOINT RightLeg
    {
      OFFSET 0.0 -0.444227 0.013727000000000001
      CHANNELS 3 ZROTATION XROTATION YROTATION 
      JOINT RightFoot
      {
        OFFSET 0.0025354900000000005 -0.42092399999999996 -0.014605900000000002
        CHANNELS 3 ZROTATION XROTATION YROTATION 
        End Site
        {
          OFFSET 0.0004 -0.0441509 0.08499100000000001
        }
      }
    }
  }
}
MOTION
Frames: 11
Frame Time: 0.033333
1.709 1.0352922416125452 0.0970516 -6.603770106574121 -0.07470490056232357 -93.04490083646985 0.6342270337784659 4.669189887380648 6.539089922681392 1.9302900066210587 12.130000178176921 14.790299949515296 -4.856086914960645 -11.923514168057327 0.013638889757813742 5.37010987642288 -13.488999502239773 2.547169854011573 -6.268819764110811 30.436398696371096 4.358969952354662 82.55581347902712 -22.89999016429383 16.991852626570704 8.977900319614594 34.47770209995716 1.7517799177333078 -91.19582519417483 -24.196935512199822 -23.763440481052037 -18.338299770486366 37.13019923394245 6.085690012744899 -2.5851000289067696 4.254979895354395 -7.535849310338972 -2.259829985488072 12.623100562664114 -6.358049782314681 4.51224238553751 -12.621881373897267 -0.14472431803444483 
1.7089699999999999 1.0352922416125452 0.09704829999999999 -6.432410478695433 -0.10328400620513703 -92.94679882942096 0.6246170109771109 4.449980088610967 6.479560128309677 1.9349499031822999 12.16960076121101 14.746199125591817 -4.845926581683429 -11.924204017163499 0.013638901430500311 5.156649816273879 -13.350899907411286 2.5120300248357386 -5.964339749308574 30.222999681037802 4.2225100298138 82.13110548624655 -22.93677414806893 15.426409127296925 9.07171979805389 35.11700097608119 1.2277799708843884 -91.1663802486629 -26.227021412783937 -22.738763548935676 -17.810799138244402 36.1151989723327 6.796130004829659 -2.5963201087223964 4.057770135901324 -7.515870153243038 -2.2448298228536663 12.671299500089601 -6.488190072325988 4.513571711104723 -12.630832336804568 -0.144729000449286 
1.70863 1.0352922416125452 0.0970032 -6.164970152875353 -0.12381300019936321 -92.72470156817965 0.6405950112407391 4.102820356119436 6.402759773734761 1.9600698448457257 12.268200518295666 14.600400200021431 -4.841026774727591 -11.945274296979342 0.013639971982611432 4.895760068754664 -13.157398940677531 2.346780001169627 -5.639259883969579 29.933901679133257 3.9487201893865467 81.37402682807483 -22.883322795171704 12.541596769072 9.287969563592016 35.51689830670168 0.40695000786663216 -90.27244509009164 -28.816465655446247 -20.594160989179837 -16.776800705458268 34.63350213001974 7.7609595387778985 -2.5787699376500486 3.806769648526641 -7.483309787695942 -2.2117501494862366 12.69939975210868 -6.762359842025823 4.546250324301827 -12.647022446458438 -0.1447390589700559 
1.70765 1.0352922416125452 0.09683160000000002 -6.086539944409742 -0.050161399517409576 -92.42349705597127 0.7703939518761045 3.987399977543152 6.429249808657009 2.010759880327564 12.391100380899937 14.221000267100148 -4.886326296850408 -12.034664397741883 0.01364454600822016 4.844270260809701 -13.072399797777662 2.144150059723328 -5.6178105286548 30.13350029724854 3.7470797715962534 80.82716090198859 -23.115957330755048 9.690748380268607 9.2716308973237 33.887601076424744 0.03744150287452979 -88.85364404475074 -30.78584824978187 -18.59693342114536 -16.47300072136527 35.21950162495557 9.140129265233444 -2.441450051604 3.926090065119002 -7.472740069955346 -2.1782198970769975 12.517399970163583 -7.086789985620022 4.580601480071937 -12.629981124479256 -0.14472885370694055 
1.70647 1.0352922416125452 0.0965794 -6.198990044470716 0.0915731999760072 -92.23960104275784 0.9798549896269153 4.123659690163968 6.5712596867853295 2.0397198824084177 12.49099958147419 13.81599993139601 -4.952768669548999 -12.15432418935863 0.013606202066601542 4.8488998484065 -12.921499574670923 1.9879500367074832 -5.539460148025115 30.432102507383156 3.5598800812586595 80.34311905588812 -23.66710407790359 7.306956864647151 8.987960334488376 30.993701151509114 0.16799900138426985 -87.02409591329278 -31.69793463607245 -16.555014217824198 -17.1133002202027 37.09079928771523 10.210799837447025 -2.2244600643145724 4.307149734008599 -7.443179865001178 -2.1756997707166743 12.21839990150981 -7.302779350196042 4.579545362071523 -12.576592097058205 -0.14469881154676306 
1.70582 1.0352922416125452 0.0964189 -6.219829805402071 0.18803500112874524 -92.36720263683202 1.106989996403417 4.1967098439977235 6.704949967617751 1.9963799842471597 12.52629970665211 13.801799968111554 -4.969785658979263 -12.223584868863497 0.013504095240831814 4.87291009777321 -12.752799878587133 1.9876699989515125 -5.498959687567878 30.558099007002383 3.539859943027706 79.8316471700809 -24.17091078391478 5.346172624702924 8.67998966613344 29.762300006425857 0.42462397611768643 -84.97127572805628 -32.02345803682067 -14.164173093205642 -17.68310021397455 38.30559965802077 10.173699957422809 -2.0995000459018964 4.404259656080547 -7.348709811043439 -2.214800042394059 12.116899875348837 -7.269870645001275 4.559457348835693 -12.549001547905938 -0.14468363038411566 
1.7056 1.0352922416125452 0.0964665 -6.024159826720016 0.17068499995580383 -92.69229915075711 1.0703799690087372 4.064949945379476 6.721539643338065 1.9165201318109013 12.479799778782661 14.18030002360969 -4.941966298489801 -12.222064297999523 0.013499005115724034 4.913030202071042 -12.657200282095403 2.093099945206183 -5.627240031690826 30.440401187224722 3.6956599730902817 79.30069558476079 -24.300701453617947 3.7045648322206857 8.539609641895815 31.355998290748687 0.4995089695585162 -83.06613106286463 -32.4135301403201 -11.714182530374776 -17.637599201271218 38.3616003790257 9.405419789012264 -2.1447301989159557 4.085329949202325 -7.254710186364785 -2.2549899426874718 12.254800540917747 -7.044699798633464 4.548804815051412 -12.582201389914077 -0.14470186645559105 
1.70514 1.0352922416125452 0.09668290000000002 -5.806399735601669 0.10714199586913642 -92.91529799696886 0.9560039690452308 3.9344502166630977 6.638370137362113 1.8898998964075997 12.370600421879791 14.53139992147867 -4.94000091155613 -12.197605390581707 0.013573526881839236 4.902250029126646 -12.664699829804077 2.1575299734205595 -5.721819795562109 30.3060001398318 3.8081198915481878 78.84760132578965 -24.244763911862837 2.555571413577512 8.556820011056955 33.63740100184342 0.3106409788357203 -81.783974782059 -32.959122236126134 -9.99028803386681 -17.4298999788003 38.15040068460516 9.023269851176403 -2.2608698817892066 3.7978097209960535 -7.273919239631799 -2.2484899504751468 12.343799613350306 -6.812880189995469 4.537382177438211 -12.62619207703719 -0.14472714615964805 
1.70451 1.0352922416125452 0.0969603 -5.7435897428810545 0.08953210066219071 -92.98090196394683 0.8749540095069506 3.960550077029009 6.547820185101139 1.9340698759964259 12.266599692708946 14.673500299613494 -4.981561331995188 -12.185224818937414 0.013709718786156242 4.7996298519417895 -12.666399693133764 2.126850044329332 -5.551490245587623 30.329000801861813 3.7305101595566255 78.54991436100381 -24.343490881220784 2.136649444797596 8.636190224307088 34.334001750009264 -0.13920400440076713 -81.30603912507652 -33.45269219611877 -9.294632413127363 -17.367900644156805 38.19730017854105 9.286509610656926 -2.32761982644386 3.8048098111216704 -7.375649784677262 -2.2151902169503956 12.25610083818099 -6.649070055583761 4.515091855081875 -12.623792119317578 -0.14472569207640676 
1.70446 1.035291241612545 0.0971902 -5.775939653224351 0.13030099956000096 -93.08610053754337 0.8638249633063552 4.01367016575149 6.528739624767884 1.9746301006089004 12.266000343609276 14.813399649288279 -5.0105986005910275 -12.190674456121437 0.013888143304246274 4.708580015210934 -12.504900723982459 2.0846401155888876 -5.286530132209903 30.38530205119023 3.5947601498026223 78.45756337323607 -24.563597142319033 2.4369694475084716 8.708009663429772 33.74140087724062 -0.690999993046435 -81.34322950510725 -33.74268153771 -9.229964182065684 -17.332800302012107 38.294299110038985 9.609490473486613 -2.3132800577248296 3.873240195755559 -7.38907025262269 -2.216889866836671 12.168099827140898 -6.520420027471986 4.506975029026961 -12.580481889790526 -0.14470053243426878 
1.7050200000000002 1.035288241612545 0.0972939 -5.820939927684157 0.2188330044472071 -93.26520175795945 0.9395229360214016 3.9930797067248407 6.613769930405843 1.9620399275344513 12.398599928608611 14.976799972349786 -4.999114064388475 -12.2289141239634 0.014089633050998324 4.745730267880281 -12.149999825840364 2.0863698609961934 -5.215479943142492 30.295498723982902 3.555340139894717 78.57741953279145 -24.662008215427868 3.201733776043752 8.771469804782006 33.41759868416324 -1.0268099788498142 -81.57723861626106 -33.750215236364525 -9.486083469336467 -17.292298987781226 38.3477999818077 9.692789753056795 -2.2233700088117208 3.8674699665673673 -7.271929947036033 -2.255379903800397 12.154499212956111 -6.449209755845902 4.52094874229516 -12.52299218754653 -0.14466874270615915 
